<?xml version="1.0" encoding="iso-8859-1"?>
<!-- Generator: Adobe Illustrator 16.0.0, SVG Export Plug-In . SVG Version: 6.00 Build 0)  -->
<!DOCTYPE svg PUBLIC "-//W3C//DTD SVG 1.1//EN" "http://www.w3.org/Graphics/SVG/1.1/DTD/svg11.dtd">
<svg version="1.1" id="Capa_1" xmlns="http://www.w3.org/2000/svg" xmlns:xlink="http://www.w3.org/1999/xlink" x="0px" y="0px"
	 width="34.886px" height="34.886px" viewBox="0 0 34.886 34.886" style="enable-background:new 0 0 34.886 34.886;"
	 xml:space="preserve">
<g>
	<path d="M9.632,22.573c-0.329,0.856-0.797,2.337-0.796,3.861c0.013,1.934,0.715,3.868,3.408,4.798
		c0.061-0.049,0.119-0.096,0.169-0.133c3.731-2.866,5.393-1.746,5.905-1.188c0.513-0.561,2.174-1.681,5.907,1.188
		c0.738,0.568,2.685,2.31,3.699,0.408c0.166-0.31,0.154-0.926-0.241-1.457c-0.109-0.145-0.648-0.891,0.133-0.571
		c0.596,0.243,1.973,2.528-0.441,4.092c-1.504,0.974-3.707,2.179-7.149,0.41c0,0-1.183-0.578-1.905-1.133
		c-0.722,0.555-1.902,1.133-1.902,1.133c-3.444,1.769-5.647,0.562-7.151-0.41c-2.414-1.562-1.038-3.849-0.441-4.092
		c0.215-0.088,0.324-0.09,0.375-0.052c-0.566-0.924-0.774-1.979-0.767-2.993c0.002-1.739,0.568-3.392,0.906-4.228
		c-0.055-0.117-0.086-0.248-0.086-0.388c0-0.36,0.203-0.668,0.499-0.826c-0.17-0.452-0.273-0.938-0.299-1.442
		c-4.761-0.65-7.975-1.939-7.995-3.462c-0.014-1.166,1.86-2.242,4.864-3.033c0.464,2.128,5.274,3.746,11.131,3.67
		c5.857-0.078,10.623-1.822,11.03-3.963c3.022,0.713,4.927,1.736,4.942,2.904c0.029,2.15-6.311,4-14.432,4.3
		c-0.324,2.336-2.325,4.138-4.752,4.138c-1.383,0-2.625-0.586-3.5-1.521c-0.154,0.109-0.342,0.176-0.546,0.176
		C9.983,22.76,9.789,22.69,9.632,22.573z M6.688,12.364c1.329,1.722,5.637,2.942,10.745,2.876c5.106-0.066,9.381-1.404,10.664-3.162
		c0-0.017,0.003-0.035,0.004-0.055l-0.067-5.078c-0.05-3.881-2.899-6.99-6.36-6.945l-8.879,0.118C9.331,0.165,6.568,3.35,6.618,7.23
		l0.067,5.077C6.682,12.325,6.688,12.344,6.688,12.364z"/>
</g>
<g>
</g>
<g>
</g>
<g>
</g>
<g>
</g>
<g>
</g>
<g>
</g>
<g>
</g>
<g>
</g>
<g>
</g>
<g>
</g>
<g>
</g>
<g>
</g>
<g>
</g>
<g>
</g>
<g>
</g>
</svg>
